<svg width="40" height="41" viewBox="0 0 40 41" fill="none" xmlns="http://www.w3.org/2000/svg">
<rect x="1" y="1.5" width="38" height="38" rx="19" fill="white"/>
<rect x="1" y="1.5" width="38" height="38" rx="19" stroke="#121212" stroke-width="1.5"/>
<path fill-rule="evenodd" clip-rule="evenodd" d="M15.821 10.2917C16.1476 9.60333 16.8511 9.125 17.6666 9.125H22.3333C23.1476 9.125 23.8511 9.60333 24.179 10.2917C24.9758 10.2987 25.5976 10.3348 26.153 10.5518C26.8159 10.8112 27.3924 11.2518 27.8166 11.8235C28.2448 12.3987 28.4455 13.1383 28.722 14.1545L28.7651 14.3132L29.4535 16.8413C29.9124 17.0729 30.3147 17.4027 30.6318 17.8073C31.3575 18.7372 31.4858 19.8443 31.3575 21.1137C31.2315 22.3457 30.8441 23.8973 30.3588 25.8398L30.3273 25.9623C30.0205 27.1908 29.7708 28.1883 29.4756 28.9665C29.1653 29.7785 28.7733 30.4435 28.1258 30.9487C27.4795 31.4538 26.7386 31.672 25.8765 31.777C25.0493 31.875 24.0215 31.875 22.7556 31.875H17.2443C15.9785 31.875 14.9495 31.875 14.1235 31.7758C13.2601 31.6732 12.5205 31.4538 11.873 30.9475C11.2266 30.4435 10.8346 29.7785 10.5243 28.9665C10.228 28.1883 9.97945 27.1908 9.67262 25.9623L9.64112 25.8398C9.15579 23.8973 8.76729 22.3457 8.64245 21.1148C8.51412 19.8432 8.64245 18.7372 9.36695 17.8073C9.69712 17.385 10.0926 17.0723 10.5453 16.8413L11.2336 14.3132L11.278 14.1545C11.5545 13.1383 11.7551 12.3987 12.1833 11.8223C12.6076 11.2511 13.1842 10.8108 13.847 10.5518C14.4023 10.3348 15.023 10.2975 15.821 10.2917ZM15.8221 12.0452C15.0498 12.0533 14.7406 12.0825 14.484 12.1828C14.1269 12.3225 13.8164 12.5598 13.588 12.8677C13.3826 13.1442 13.2613 13.5303 12.923 14.7752L12.51 16.2872C13.721 16.125 15.2843 16.125 17.2256 16.125H22.7731C24.7156 16.125 26.279 16.125 27.4888 16.2872L27.077 14.774C26.7375 13.5292 26.6173 13.143 26.412 12.8665C26.1835 12.5586 25.873 12.3213 25.516 12.1817C25.2593 12.0813 24.949 12.0522 24.1766 12.044C24.0108 12.3924 23.7496 12.6867 23.4234 12.8928C23.0971 13.0989 22.7192 13.2083 22.3333 13.2083H17.6666C17.2807 13.2083 16.9028 13.0989 16.5765 12.8928C16.2503 12.6867 15.9891 12.3924 15.8233 12.044M17.6666 10.875C17.5893 10.875 17.5151 10.9057 17.4604 10.9604C17.4057 11.0151 17.375 11.0893 17.375 11.1667C17.375 11.244 17.4057 11.3182 17.4604 11.3729C17.5151 11.4276 17.5893 11.4583 17.6666 11.4583H22.3333C22.4106 11.4583 22.4848 11.4276 22.5395 11.3729C22.5942 11.3182 22.625 11.244 22.625 11.1667C22.625 11.0893 22.5942 11.0151 22.5395 10.9604C22.4848 10.9057 22.4106 10.875 22.3333 10.875H17.6666ZM12.65 18.0337C11.5883 18.1877 11.0738 18.4677 10.7483 18.8853C10.4216 19.3018 10.2758 19.8677 10.3843 20.9363C10.4951 22.0283 10.851 23.4563 11.3573 25.4863C11.6816 26.779 11.9056 27.675 12.1623 28.3447C12.4073 28.991 12.6488 29.3328 12.9521 29.5697C13.2543 29.8053 13.644 29.9558 14.3323 30.0387C15.044 30.1238 15.9656 30.125 17.3003 30.125H22.702C24.0355 30.125 24.9595 30.1238 25.67 30.0387C26.3583 29.957 26.7479 29.8053 27.0501 29.5697C27.3535 29.3328 27.5938 28.991 27.8411 28.3447C28.0955 27.675 28.3206 26.779 28.6438 25.4863C29.1513 23.4563 29.5071 22.0283 29.6168 20.9363C29.7265 19.8677 29.5795 19.3007 29.254 18.8842C28.9285 18.4677 28.414 18.1877 27.3511 18.0337C26.2661 17.8773 24.7938 17.875 22.702 17.875H17.3003C15.2085 17.875 13.7361 17.8773 12.6511 18.0337" fill="#121212"/>
</svg>
