<svg width="30" height="30" viewBox="0 0 30 30" fill="none" xmlns="http://www.w3.org/2000/svg">
<path fill-rule="evenodd" clip-rule="evenodd" d="M10.5224 4.0625C10.8724 3.325 11.6261 2.8125 12.4999 2.8125H17.4999C18.3724 2.8125 19.1261 3.325 19.4774 4.0625C20.3311 4.07 20.9974 4.10875 21.5924 4.34125C22.3027 4.61909 22.9204 5.09126 23.3749 5.70375C23.8336 6.32 24.0486 7.1125 24.3449 8.20125L24.3911 8.37125L25.1286 11.08C25.6204 11.3281 26.0514 11.6815 26.3911 12.115C27.1686 13.1113 27.3061 14.2975 27.1686 15.6575C27.0336 16.9775 26.6186 18.64 26.0986 20.7212L26.0649 20.8525C25.7361 22.1687 25.4686 23.2375 25.1524 24.0713C24.8199 24.9412 24.3999 25.6537 23.7061 26.195C23.0136 26.7362 22.2199 26.97 21.2961 27.0825C20.4099 27.1875 19.3086 27.1875 17.9524 27.1875H12.0474C10.6911 27.1875 9.58863 27.1875 8.70363 27.0813C7.77863 26.9713 6.98613 26.7362 6.29238 26.1938C5.59988 25.6537 5.17988 24.9412 4.84738 24.0713C4.52988 23.2375 4.26363 22.1687 3.93488 20.8525L3.90113 20.7212C3.38113 18.64 2.96488 16.9775 2.83113 15.6588C2.69363 14.2963 2.83113 13.1113 3.60738 12.115C3.96113 11.6625 4.38488 11.3275 4.86988 11.08L5.60738 8.37125L5.65488 8.20125C5.95113 7.1125 6.16613 6.32 6.62488 5.7025C7.07954 5.09048 7.69725 4.61875 8.40738 4.34125C9.00238 4.10875 9.66738 4.06875 10.5224 4.0625ZM10.5236 5.94125C9.69613 5.95 9.36488 5.98125 9.08988 6.08875C8.70734 6.23835 8.37464 6.49264 8.12988 6.8225C7.90988 7.11875 7.77988 7.5325 7.41738 8.86625L6.97488 10.4862C8.27238 10.3125 9.94738 10.3125 12.0274 10.3125H17.9711C20.0524 10.3125 21.7274 10.3125 23.0236 10.4862L22.5824 8.865C22.2186 7.53125 22.0899 7.1175 21.8699 6.82125C21.6251 6.49139 21.2924 6.2371 20.9099 6.0875C20.6349 5.98 20.3024 5.94875 19.4749 5.94C19.2972 6.31333 19.0174 6.62866 18.6678 6.84945C18.3183 7.07024 17.9133 7.18746 17.4999 7.1875H12.4999C12.0864 7.18746 11.6815 7.07024 11.3319 6.84945C10.9824 6.62866 10.7025 6.31333 10.5249 5.94M12.4999 4.6875C12.417 4.6875 12.3375 4.72042 12.2789 4.77903C12.2203 4.83763 12.1874 4.91712 12.1874 5C12.1874 5.08288 12.2203 5.16237 12.2789 5.22097C12.3375 5.27958 12.417 5.3125 12.4999 5.3125H17.4999C17.5828 5.3125 17.6622 5.27958 17.7208 5.22097C17.7795 5.16237 17.8124 5.08288 17.8124 5C17.8124 4.91712 17.7795 4.83763 17.7208 4.77903C17.6622 4.72042 17.5828 4.6875 17.4999 4.6875H12.4999ZM7.12488 12.3575C5.98738 12.5225 5.43613 12.8225 5.08738 13.27C4.73738 13.7163 4.58113 14.3225 4.69738 15.4675C4.81613 16.6375 5.19738 18.1675 5.73988 20.3425C6.08738 21.7275 6.32738 22.6875 6.60238 23.405C6.86488 24.0975 7.12363 24.4638 7.44863 24.7175C7.77238 24.97 8.18988 25.1313 8.92738 25.22C9.68988 25.3113 10.6774 25.3125 12.1074 25.3125H17.8949C19.3236 25.3125 20.3136 25.3113 21.0749 25.22C21.8124 25.1325 22.2299 24.97 22.5536 24.7175C22.8786 24.4638 23.1361 24.0975 23.4011 23.405C23.6736 22.6875 23.9149 21.7275 24.2611 20.3425C24.8049 18.1675 25.1861 16.6375 25.3036 15.4675C25.4211 14.3225 25.2636 13.715 24.9149 13.2687C24.5661 12.8225 24.0149 12.5225 22.8761 12.3575C21.7136 12.19 20.1361 12.1875 17.8949 12.1875H12.1074C9.86613 12.1875 8.28863 12.19 7.12613 12.3575" fill="white"/>
</svg>
