<svg width="30" height="30" viewBox="0 0 30 30" fill="none" xmlns="http://www.w3.org/2000/svg">
<path d="M15 2C8.09625 2 2.5 7.59625 2.5 14.5C2.5 21.4037 8.09625 27 15 27C21.9037 27 27.5 21.4037 27.5 14.5C27.5 7.59625 21.9037 2 15 2Z" stroke="white" stroke-width="2" stroke-linecap="round" stroke-linejoin="round"/>
<path d="M5.33887 22.4325C5.33887 22.4325 8.12512 18.875 15.0001 18.875C21.8751 18.875 24.6626 22.4325 24.6626 22.4325M15.0001 14.5C15.9947 14.5 16.9485 14.1049 17.6518 13.4017C18.355 12.6984 18.7501 11.7446 18.7501 10.75C18.7501 9.75544 18.355 8.80161 17.6518 8.09835C16.9485 7.39509 15.9947 7 15.0001 7C14.0056 7 13.0517 7.39509 12.3485 8.09835C11.6452 8.80161 11.2501 9.75544 11.2501 10.75C11.2501 11.7446 11.6452 12.6984 12.3485 13.4017C13.0517 14.1049 14.0056 14.5 15.0001 14.5Z" stroke="white" stroke-width="2" stroke-linecap="round" stroke-linejoin="round"/>
</svg>
